<?xml version="1.0" encoding="utf-8"?>
<!-- Generator: Adobe Illustrator 22.0.1, SVG Export Plug-In . SVG Version: 6.00 Build 0)  -->
<svg version="1.1" id="Layer_1" xmlns="http://www.w3.org/2000/svg" xmlns:xlink="http://www.w3.org/1999/xlink" x="0px" y="0px"
	 viewBox="0 0 841.9 330" style="enable-background:new 0 0 841.9 330;" xml:space="preserve">
<style type="text/css">
	.st0{clip-path:url(#SVGID_2_);fill:#3A66AF;}
	.st1{clip-path:url(#SVGID_2_);fill:#F4ADBF;}
	.st2{clip-path:url(#SVGID_2_);fill:#EDA901;}
</style>
<g>
	<defs>
		<rect id="SVGID_1_" width="841.9" height="330"/>
	</defs>
	<clipPath id="SVGID_2_">
		<use xlink:href="#SVGID_1_"  style="overflow:visible;"/>
	</clipPath>
	<path class="st0" d="M303.4,185.5c0.2,13-5.5,39.8-10.3,53c-34.6,93.9-176.3,69-189.1-31.3c-6.2-48.6,32.9-101.5,74.9-115.2
		C238.9,72.4,302.5,122.1,303.4,185.5"/>
	<path class="st1" d="M793.8,226.2c-1.1-1.1-2.2-0.2-3.2,0.2c-10.6,4-21.2,7.9-31.8,12.1c-20.3,8.2-40.7,16.3-62.9,17.9
		c-9,0.6-17.5,0.1-25.1-5.5c-2-1.5-2.4-2.6-1.1-5c2.5-4.8,5.3-9.6,6.6-15c0.7-3,0.5-6-1.6-8.5c-1.8-2.1-4.7-1.8-6.9-1.1
		c-8.6,2.7-13.6,10.1-13.7,19.2c0,1.5,0.6,3.4-1.2,4.3c-3.5,1.9-7.1,3.3-11.2,1.7c-5.1-2.1-9-5.7-12.3-9.9c-1-1.3-1.7-3.1-0.7-4.9
		c2.7-4.8,4.2-10.1,6.2-15.1c5-12.6,5-26.9-0.9-39.1c-0.5-1.1-1.2-2.3-2.3-2.8c-0.8-0.4-1.7-0.4-2.5-0.4c-1.6,0.1-3.2,0.5-4.6,1.4
		c-2.1,1.4-3.5,3.7-4.3,6.1c-1,2.8-1.9,5.7-2.7,8.5c-1.5,5.4-2.4,11-3.5,16.5c-1.5,8-1.8,16,0.4,24c0.4,1.4,0,2.5-0.7,3.7
		c-2,3.3-4.8,5.8-8,7.7c-3.2,1.8-6.4,1.4-8.9-1.6c-2.2-2.6-4.5-4.7-2.1-9c4.9-8.7,8-18.2,7.7-28c-0.2-7.1-1.2-15.2-4.2-21.8
		c-1.5-3.3-4.6-6.3-8.1-6c-0.7,0.1-1.5,0.3-2.1,0.7c-0.6,0.4-1,1-1.4,1.5c-9.9,14.4-10,32.7-7.2,49.3c0.5,3.3,1.5,6.1-1.1,9.7
		c-3.9,5.4-7.2,11.3-12.4,15.7c-2.5,2.1-5.4,3.5-8.6,3.3c-2-0.1-4.2-1.3-4.9-3.2c-0.8-2.2,1-4.3,2-6.1c3.1-5.9,5.7-11.9,6.5-18.6
		c0.3-2.6,0.3-5-1.9-6.8c-1.6-1.2-3.6-1.7-5.6-2.1c-3.9-0.8-8.4-1-11.4,1.5c-1.5,1.3-2.5,3.1-3.4,4.9c-1.4,2.9-2.6,5.9-2.7,9.1
		c-0.1,2.2,0.4,4.3,1.1,6.3c0.6,1.7,1.6,3.4,1.6,5.3c-0.1,3.3-3.5,5.8-6.5,6.4c-5.6,1.2-10.3-3.5-11.4-9.7
		c-0.7-4.1-0.7-8.3-1.2-12.5c-0.4-2.7-1-5.8-4.1-6.5c-3.5-0.8-6.1,1-7.8,4.1c-1,1.9-2,3.9-3,5.7c-0.2,0.4-0.9,0.8-1.3,0.8
		c-0.7,0-0.7-0.7-0.8-1.3c-0.1-1,0.1-2.1-0.2-3c-0.9-2.7-1.8-5.8-5.2-6.1c-3.4-0.3-6.2,0.9-7.4,4.6c-1.2,3.8-3.2,7.4-3.7,11.5
		c-0.4,3.1-1.7,6.1-3.2,8.9c-2.4,4.4-7.6,7.1-11.8,5.8c-3.4-1-6.4-7.2-6.1-11.7c0.4-4.9,2.9-9.3,3-14.3c0.1-4.8-3.7-7.6-8-5.7
		c-1.3,0.6-2.2,2.2-3.4,3.2c-0.7,0.6-1.7,1.5-2.7,1c-1-0.4-0.4-1.5-0.4-2.3c-0.3-3.7-1.4-6.3-5.9-6.1c-4,0.1-5,2.7-5.1,5.6
		c-0.4,7.4-3.2,13.9-5.9,20.5c-1.7,4-4.6,6.6-7.8,9c-3.1,2.3-5.2,1.2-5.8-2.5c-0.3-1.9-0.1-3.7-0.1-5.6c0-4.2,1.8-8.2,0.8-12.4
		c-0.5-2.4-0.5-5.4-4.3-5.4c-3.6,0-5.9,1.2-6.6,5.2c-0.9,5.2-2.9,10.3-6.4,14.3c-2.2,2.5-5.1,5.3-9,3.5c-3.5-1.6-3.4-5.1-2.9-8.3
		c0.4-2.4,0.8-4.8,1.8-7.1c1.4-3.2,2.5-6.5,3.5-9.8c0.9-3,0.1-5.9-2.7-6.9c-2.8-1-6-0.9-7.4,3c-2,5.3-6.6,8.1-11.3,10.6
		c-2.4,1.2-4.4,0.7-5.9-1.7c-1.8-2.8-4.4-4.9-7-6.9c-2.9-2.1-5.5-3.3-9.3-0.6c-2.8,2-4.5,3.5-4.2,7c0.1,0.9-0.4,2.1-1,2.8
		c-6,7.4-7,15.8-3.7,24.4c4.4,11.2,12.1,14.6,21.7,5.6c3.8-3.6,5.5-8.1,6.6-12.9c0.8-3.1,2.2-4.9,5.1-6.3c2.2-1.1,3.1-1.2,3.1,1.5
		c0,3,1,5.7,2.5,8.1c4.5,7.1,11.3,13.6,20.9,4.7c2.5-2.3,5.1-2.8,6.9,1.1c0.5,1,1.2,2,1.9,2.9c3.1,4.2,7.2,5.8,11.6,4.7
		c6.7-1.8,11.6-5.9,15.2-11.8c2.2-3.6,3.5-7.5,5-11.4c0.9-2.2,2.5-2.6,4.4-2.6c2.4,0.1,1.6,2.1,1.7,3.3c0.2,4.6,2.3,8.4,4.5,12.4
		c2.8,5,7.3,9.1,12.9,10.5c6.7,1.7,15.3-0.7,18.3-7.5c1.2-2.7,1.2-5.7,1.9-8.5c0.1-0.5,0.4-1,0.9-1c0.3,0,0.6,0.3,0.7,0.5
		c0.1,0.3,0.1,0.6,0.1,0.9c-0.1,1.3-0.1,2.6-0.1,3.9c0,1,0,2,0.3,3c0.3,0.9,0.8,1.7,1.4,2.4c1.1,1.3,2.6,2.4,4.2,2.3
		c1-0.1,1.9-0.6,2.7-1.2c3.2-2.6,4.4-6.8,6.1-10.3c0.5-1,0.1-2.5,1.8-2.6c1.3,0,2,1.1,2.6,2c0.5,0.8,1,1.7,1.5,2.6
		c5.4,9.5,14.1,13.8,25.2,9.4c3.4-1.3,5.2-0.6,7.5,1.3c5.7,4.6,14.1,4.9,20.6,1.6c7-3.5,11.8-9,16.2-15.1c2.7-3.8,3.1-3.6,6.3-0.4
		c3.9,4,8.2,6.7,14.6,5.5c5.8-1.1,10-4.1,13.9-8c1.8-1.8,3.2-1.9,4.9,0.1c2.5,3,5.5,5.6,8.8,7.6c6.2,3.8,12.9,7.3,20.2,3.4
		c5-2.6,8.4-0.7,11.8,2.5c4.3,4.1,9.8,6.2,15.5,6.9c21.4,2.5,41.8-2.3,61.4-10.5c15.9-6.6,30.5-15.7,46.6-22
		c2.9-1.2,6.2-3.1,6.9-7.1C793.8,228.2,794.9,227.3,793.8,226.2 M365.6,249.9c-0.5,1.2-1.4,2.3-2.3,3.3c-0.8,0.9-1.6,1.7-2.6,2.3
		c-0.4,0.3-0.9,0.5-1.3,0.5c-1.1,0.1-2-0.7-2.7-1.5c-0.9-1.1-1.5-2.5-1.8-3.9c-0.4-2-0.2-4.2,0.7-6c1-2.1,2.9-1.6,4.9-1.5
		c1.5,0.1,2.8,0.7,4.1,1.3c0.3,0.1,0.5,0.3,0.7,0.5c0.3,0.3,0.5,0.6,0.6,1C366.3,247.2,366.2,248.6,365.6,249.9 M551.5,226.9
		c-0.3,2.9-0.8,5.8-1.6,8.6c-0.4,1.5-2.1,3.9-3.9,2.6c-0.8-0.6-1.6-1.5-1.9-2.5c-0.3-1.1,0-2.2,0.1-3.3c0.1-0.6,0.2-1.2,0.4-1.7
		c0.5-1.5,1.2-3.3,2.5-4.5c0.7-0.6,1.6-1,2.5-1.1c0.2,0,0.4,0,0.6,0.1c0.5,0.1,1,0.4,1.2,0.9C551.5,226.3,551.5,226.6,551.5,226.9
		 M590,220.2c-0.7,2.1-2.5,1.8-2.9-0.4c-1.3-7.3-1.9-14.7,2.1-22.7c0.7-1.3,2-1.2,2.5,0.2C594.9,205.8,592.3,213.1,590,220.2
		 M623.6,221c-0.7,1.7-2.3,0.9-2.3-1.2c0.1-7.9,1.8-15.5,4.9-22.7c0.7-1.6,2.2-1,2.3,0.9C629.1,206.2,626.5,213.6,623.6,221
		 M662.6,240.6c-0.7-0.7-1.3-1.8-1.3-2.7c-0.1-0.7,0.1-1.4,0.3-2.1c0.5-1.4,1.1-2.8,1.9-4c0.6-0.9,1.3-1.8,2.2-2.3
		c0.8-0.5,1.7-0.7,2.6-0.6c0.2,0,0.4,0.1,0.6,0.2c0.5,0.2,0.9,0.5,1,1c0.1,0.3,0,0.6-0.1,0.9c-0.8,2.7-1.8,5.3-3,7.9
		C666.1,240.1,664.1,242.1,662.6,240.6"/>
	<path class="st1" d="M342.4,252c-2-0.9-2.5,1.1-3.6,2.2c-3.2,3.1-7,5.7-11.5,4.3c-4-1.2-5.3-5-5.7-8.9c-0.2-1.6-0.5-3.1-0.7-4.6
		c-0.6-4,1.3-5.5,4.8-6.7c4.4-1.6,9.5-2.6,11-8.4c0.8-3.2,0-4.7-3.3-4c-2.6,0.5-5.1,0.6-7.7,0.9c-2.7,0.3-3.4-0.6-2.9-3.4
		c2.2-13.2,6.1-25.9,10.4-38.6c1-3-0.2-7.7-2.5-8.3c-2.7-0.8-6.4,1.7-7.4,4.6c-2.7,7.8-4.9,15.7-7,23.7c-2.9,11.6-5.3,23.2-5.6,36.3
		c0.1,2.2,0.2,5.6,0.6,8.9c0.3,2.1,0.7,4.3,1.6,6.3c2.3,4.9,3.8,10.7,9.5,12.7c9.5,3.3,18.9-2.7,20.6-12.8
		C343.3,254.6,344.5,252.9,342.4,252"/>
	<path class="st1" d="M307.3,244.9c-1.2-0.6-2.5-0.3-3.6,0.7c-1.7,1.5-3.4,3.2-5.3,4.4c-2.9,1.7-5.8,3.9-9.5,2.9
		c-7.3-1.9-9.8-6.1-8.5-14.8c0.5-3.7,1.1-7.4,1.5-11.1c0.3-2.7-0.9-4.8-3.5-5c-2.6-0.2-5.2,0.5-6.4,3.4c-0.9,2.4-1.6,4.9-2.7,7.2
		c-4.3,9.3-10.8,16.3-21.2,18.6c-2.6,0.6-5.4,0.5-8.2,0.6c-1.9,0.1-2.9,1.4-3.4,2.9c-0.4,1.3,0.6,2.5,1.8,3.1
		c3.7,2.2,7.4,4,12.1,2.8c6.1-1.6,11.5-4.3,16.1-8.6c2.2-2.1,3.7-2.7,5.8,0.7c4.2,6.9,10.3,11,19,11.1c1.9,0.1,3.9-0.2,5.9-1.4
		c5.6-3.4,9-8.1,10.4-14.4C307.8,246.8,308.7,245.6,307.3,244.9"/>
	<path class="st1" d="M282.1,205c3.4-0.2,4.5-2.6,5.1-5.2c0.1-4.4-2.1-7.9-4.7-8c-3.2-0.1-6.2,2.8-6.3,5.8
		C276.1,201,279.4,205.2,282.1,205"/>
	<path class="st2" d="M256.9,260c-0.5,0.7-0.9,1.4-1.4,2.1c-1.6,0.7-3.3,1.6-5.6,2.8c-1.6,1.2-1.6,1.2-9.6,4
		c-1.2-0.2-2.1-0.5-3.3-0.5c-0.9-0.9-2.1-1.9-3.3-2.8c-0.9-2.3-1.6-4.9-2.6-7.5c-0.5-1.9-1.4-3.5-2.1-5.4c0-0.5-0.2-0.9-0.5-1.4
		c-0.2-0.9-0.7-2.1-0.9-3c-0.7-1.9-1.4-3.5-2.1-5.4c-1.2-3.5-2.8-7-4.7-10.3c-2.6-4.9-4.7-9.9-6.6-15c0-0.2-0.2-0.7-0.2-0.9
		c-0.9,0.5-1.9,0.7-2.8,0.9c-0.7-0.2-1.4-0.2-2.3-0.5c-0.2-0.2-0.7-0.7-1.2-1.2c-0.7,0.2-1.4,0.5-2.1,0.7c-0.2,0.7-0.5,1.4-0.7,2.1
		c-0.7-0.2-1.4-0.5-2.1-0.7c-0.7,0.2-1.4,0.7-1.4,1.9c-0.9,0-1.9,0.2-3,0.2c-0.2-0.7-0.5-1.2-0.7-1.6c-0.7-0.2-1.4-0.5-2.3-0.5
		c-0.2,0.9-0.2,0.9,0.2,1.9c0.7,0.2,1.2,0.2,2.3,0.5c-1.2,0.7-2.1,0.9-3,1.4c-0.2,1.4-0.2,2.8-0.5,4.5c0,0.5,0.2,0.9,0.5,1.4v0.7
		c-1.6,2.8-1.9,6.1-1.2,9.4c0.5,2.6,0.2,4.9,0.7,7.5c0.5,2.8,0.5,5.9,0.5,8.7c0,1.6,0.2,3.3,0.2,4.7v3.5c0,0.9-0.2,1.6,0,2.3
		c0.2,1.6,0.2,3-0.2,4.5c-0.2,0.7-0.2,1.4-0.5,2.1c-1.2,0.9-2.6,1.2-4,0.9h-1.6c-2.6,0.5-5.2,0.5-7.7,0.5h-0.5
		c-1.9-0.7-3.8-0.5-5.4-0.7c-0.9,0-1.6-0.5-2.3-0.7c-0.7,0.2-1.4,0.2-2.1,0.5c-0.2,0-0.5,0.2-0.5,0c-1.4-0.2-2.8-0.7-4.5-0.9
		c-0.2-2.1-0.5-4-0.9-5.9c-0.2-1.2-0.5-2.6-0.9-4c-0.2-1.4-0.2-2.8,0-4.5c0.2-1.9,0.2-3.8,0.5-5.6c0-1.4,0.2-2.8,0.2-4.2
		c0.2-1.2,0.2-2.1,0.2-3.3c0.2-0.7,0.2-1.2,0.5-1.9h1.4v-0.9c-0.2-0.7-0.2-1.2-0.9-1.4c0-1.2,0-2.1,0.2-3.3c0,0.2,0,0.2-0.2,0.2
		c0-1.9-0.2-3.8-0.2-5.6v-5.9c0.2-0.2,0.7-0.7,0.9-0.9c0.2-0.2,0.2-0.2,0.5-0.5c0-0.5,0.2-0.9,0.2-1.4c0,0,0-0.2-0.2-0.2
		c0.2-0.2,0.2-0.2,0.2-0.5c0.2-2.1,0.2-4.2,0.2-6.3c-0.5-2.6-0.5-5.2-0.5-7.7l-0.2,0.2c-0.7-0.5-0.7-0.7,0-1.2c0,0,0.2,0.2,0.2,0.5
		v-0.9c0-0.7,0.2-1.4,0.2-2.1c-0.5,0-0.9,0.2-1.4,0.5c-0.2-0.7-0.2-1.2-0.5-1.9c0.2-0.5,0.5-1.2,0.7-1.6c-0.2-0.2,0-0.5-0.9-0.7
		v-6.8c0.9-0.2,1.2-0.5,1.6-0.7h0.2h-0.2h1.2c0-0.7-0.2-1.4-0.2-2.1v-0.2c-0.7,0-1.4,0.5-2.1-0.2c0.2-2.3-0.5-4.9,0.2-7.5
		c-0.5-0.9-1.2-2.1-0.5-3.5c0-0.5-0.5-1.2-0.5-1.6c0-0.5,0.2-1.2,0.5-1.6c-0.2-0.2-0.5-0.5-0.7-0.7v-7c-0.2-1.6-0.5-3-0.5-4.7
		c0.2-2.6-0.9-5.2-0.9-7.7v-3c0-0.9,0-1.6-0.2-2.6c-0.2-0.7-0.2-1.9,0-2.8c0-0.9,0-1.9-0.2-2.8c-0.2-1.6-0.2-3.3-0.2-4.9
		c-0.2-1.9-0.5-3.8-0.7-5.6v-1.2c0.9-0.7,2.1-1.4,3.3-2.1c0.5-0.9,0.9-2.1,1.6-3.5c1.6-0.7,3.3-1.9,5.4-2.6c1.9-0.5,3.8-0.9,5.6-1.6
		c0,0,0-0.2,0.2-0.5c0.7,0.2,1.4,0.2,2.1,0.5c3.5-0.7,7-1.9,11-1.2c0.9-0.7,2.3-0.7,3.8-0.7c3.5,0.5,7,0.2,10.6,0.5
		c0.9,0,1.9-0.2,2.8,0.5h0.5c1.6,0.2,3.3-0.2,4.7,0.9c1.9-0.2,3.5,0.5,5.2,0.9c0.7,0,1.6,0.2,2.3,0.5c0.2,0,0.2,0,0.5,0.2
		c0.7,0,1.4,0.2,2.3,0.5c0.5,0.2,0.9,0.2,1.4,0.2c0.5,0.2,0.7,0.2,0.9,0.2c1.4,0,2.8,0.2,4.2,0.9c1.2,0.5,2.3,0.5,3.5,0.7
		c0.5,0.2,0.9,0.2,1.2,0.5c0.2-0.2,0.5-0.7,0.5-0.9c0.9-0.2,1.6-0.7,2.6-1.2c0.7,0.2,1.2,0.5,1.9,0.7c-0.5,0.5-0.7,0.7-1.2,0.9
		c0.7,0.9,1.4,1.4,2.3,2.1c0.9,0.5,1.9,0,2.6-0.5c0.2,1.2,1.9,1.4,1.6,3c0.7,0.2,1.4,0.5,2.1,0.9c0,0.2,0,0.2-0.2,0.7
		c0.5,0.5,0.9,1.4,1.4,2.1c0,0.2,0.5,0.5,0.7,0.7c0,0.5,0,0.9-0.2,1.6c0.2,0.2,0.7,0.5,0.9,0.7c0.2,1.4,0.5,2.8,0.9,4.5
		c0.2,0.2,0.9,0.5,1.4,0.7c1.2,1.6,1.4,3.8,1.9,5.6c0.2,0.2,0.7,0.2,0.9,0.5c-0.2,0.7-0.5,1.4-0.7,2.3c0.7,0,1.2,0.2,1.6,0.5
		c-0.2,1.2,0.5,2.1,0.7,3.3c-0.2,0.5-0.5,0.9-0.7,1.4c0,0.5,0.2,1.2,0.2,1.6c-0.2,0.9-1.6,1.4-1.4,2.6c0.5,0,0.7-0.2,1.2-0.2v0.2
		c0,1.6-0.9,2.8-1.9,4c0,0-0.2,0.2-0.2,0.5c0,0.5,0,0.7,0.2,1.2c-0.5,0.2-0.7,0.2-1.2,0.5c0.2,0.7,0.2,1.4,0.5,2.3
		c-0.5,0-0.7-0.2-1.2-0.2c-1.6,1.6-2.6,3.8-3.5,5.4v1.6c-0.7,0.5-1.2,0.7-1.4,1.2c-0.7,1.9-1.4,3.5-2.1,5.4
		c-0.5,0.2-0.9,0.5-1.4,0.7c0,0,0-0.2-0.2-0.2c0,0.5-0.2,0.9-0.5,1.2c0.2,0,0.5,0.2,0.5,0.2c-0.5,0.7-1.2,1.4-1.6,1.9
		c-0.2,0.2-0.5,0.5-0.5,0.9h-0.2c0,0-0.2,0-0.2,0.2c-0.2,0.5-0.7,0.7-0.9,1.2c-0.7,1.4-1.4,2.8-2.1,4.2c0,0,0,0.5,0.2,0.9
		c-1.2,0.7-2.1,1.6-3.3,2.3c-0.5,0.2-0.7,0.5-0.9,0.7v0.7c-0.5,0.9,0,1.6,0.2,2.6c0.5,0.7,0.7,1.2,1.2,1.6c0.9,1.6,0.7,4,1.6,5.9
		c0.9,1.6,1.4,3.8,2.3,5.6c0.7,1.6,1.9,3.5,2.8,4.9c0.5,1.4,0.9,2.3,1.6,3.5c0,0.2,0.2,0.5,0.2,0.7c1.6,4.5,3.5,8.7,5.2,13.1
		c0.7,1.9,1.6,3.8,2.1,5.9c1.4,2.3,1.6,5.4,3,7.7c0.2,0.7,0.5,1.6,0.7,2.6c0.5,2.1,1.2,4,1.6,6.1C256.7,258.6,256.7,259.3,256.9,260
		 M166.4,151.4c0-0.7,0-1.2-0.2-1.9c-0.9,0.2-0.9,0.7-0.7,1.6C165.7,151.2,165.9,151.2,166.4,151.4 M167.3,190.8
		c-0.2,0.5-0.5,1.2-0.5,1.2h-1.2c-0.2,0-0.2-0.7-0.2-0.9C165.9,190.6,166.4,190.1,167.3,190.8 M165.7,221.3c0.7,0.5,0.5,1.2,0.7,1.9
		C165.4,222.9,165.4,222.2,165.7,221.3 M166.4,217.5c-0.2,0-0.5-0.2-0.7-0.2c0.2-0.9,0.5-1.2,1.4-0.9
		C167.1,216.8,166.8,217.3,166.4,217.5 M167.1,175.1v-0.2c0.2-0.7,0.2-1.6,0.2-2.3c-0.2-0.2-0.2-0.2-0.5-0.2
		c-0.2,0.2-0.5,0.7-0.7,1.2C166.4,173.9,166.8,174.4,167.1,175.1 M166.4,223.4v-0.2V223.4z M166.6,170.4c0,0,0.2,0.2,0.2,0.5
		c0.2,0,0.2,0,0.2-0.2v-0.5C166.8,170.2,166.6,170.2,166.6,170.4 M167.5,187.3v-3c-0.2,0-0.5,0-0.9,0.5c0.2,0.2,0.5,0.7,0.5,0.9
		c0,0.5-0.2,0.7-0.2,1.2C167.1,187,167.3,187,167.5,187.3 M167.1,202.3c0-0.9,0-1.9,0.2-2.8C166.8,200.4,166.8,200.9,167.1,202.3
		 M167.3,197.8c0.2-0.2,0.2-0.5,0.2-0.9C167.3,197.4,167.3,197.6,167.3,197.8 M191.5,267.3c-0.5,0.9,0.2,1.6,1.2,1.9
		c0.2,0.2,0.5,0,0.9,0C193.1,268,192.4,267.5,191.5,267.3 M197.6,189.2c0.2-0.2,0.5-0.2,0.7-0.5c2.6-1.6,5.4-2.3,8.4-3
		c0.2,0,0.7-0.2,0.9-0.2c0.5-0.5,1.2-0.9,1.6-1.4c1.6-1.6,3.3-3,4.9-4.7c1.2-0.9,2.3-2.1,3-3.3c0.9-1.2,1.6-2.8,2.6-4.2
		c0.5-0.9,1.2-2.1,1.9-3c0.9-1.2,2.3-3.1,2.6-4.5c0.5-1.9,0.5-3.8,0.2-5.6c0.2-0.7,0.5-1.4,0.7-1.9c-0.2-0.7-0.5-1.4-0.5-1.9
		c-0.5-0.2-0.7-0.5-1.2-0.7c0.5-0.5,0.9-0.5,1.2-0.7c-0.5-1.4-1.2-2.6-2.3-3.3c-0.9-0.2-1.9-0.5-2.8-0.7c-1.6-1.6-3.5-2.6-5.9-2.3
		c-0.7,0-1.4-0.2-2.1-0.5c-2.8-0.5-5.6-0.5-8.4-0.2c-2.1,0-4.2,0.5-6.1,0.7c-1.4,0.2-2.6,0.7-3.8,1.6c-0.2,1.6,0,3.3,0.2,4.9
		c0.2,1.9,0.9,3.8,0.2,5.6v0.5c0.2,2.8,0.5,5.6,0.5,8.7c0.2,0.9,0.2,2.1,0.2,3.3v9.9c0,1.4,0,2.8,0.5,4.2c0.2,0.9,0.7,1.9,0.9,2.6
		C196.4,188.9,196.9,189.2,197.6,189.2 M197.6,215.9l-0.5-0.5c-0.5,0-0.9,0.2-1.6,0.2c0.2,0.5,0.5,0.7,0.7,0.9
		C196.6,216.4,197.1,216.1,197.6,215.9 M202,215c-0.7-0.2-1.2-0.2-1.6-0.5l-0.2,0.2h-0.5c-0.2,0.2-0.5,0.5-0.9,0.7
		c0,0.2,0.2,0.2,0.2,0.2h2.8C201.8,215.7,201.8,215.4,202,215 M209.8,212.8c0.2-0.7,0.2-1.2,0.5-1.6c0.2-0.2,0.5-0.2,0.7-0.2
		c-0.2-0.2-0.5-0.7-0.7-1.2c-0.5,0.9-0.7,1.4-0.9,1.9c-0.9,0.7-1.6,1.2-2.6,1.9c-0.2,0-0.7-0.2-0.9-0.2c-0.5-0.5-0.7-0.7-0.9-1.2
		c-0.5,0.2-0.9,0.7-1.4,0.9c0.2,0.2,0.5,0.7,0.7,1.2c0.7,0,1.2,0.2,1.9,0.5C207.4,214,208.6,213.3,209.8,212.8 M207.6,207.9
		c-1.2,0.5-2.1,0.9-3.3,1.6h0.7c0.2,0,0.2,0.5,0.2,0.9c0.2,0,0.5-0.2,0.9-0.5c0.2-0.2,0.5-0.5,0.9-0.9v0.2c0.2-0.2,0.2-0.2,0.2-0.5
		c0.7-0.2,1.2-0.5,1.6-0.7l-0.2-0.2C208.6,207.7,208.1,207.9,207.6,207.9 M206.7,207c0.5-0.2,0.9-0.5,1.4-0.9c-0.9,0-1.9,0-2.8,0.5
		v0.9C205.8,207.2,206.2,207.2,206.7,207 M206,217.8h0.5c0,0.2-0.2,0.5-0.2,0.7h-0.5C206,218.2,206,218,206,217.8 M209.8,209.1
		c-0.5,0.2-0.7,0.5-1.2,0.7c0.5,0,0.9,0,1.6-0.2C210,209.6,209.8,209.3,209.8,209.1 M209.5,143.6c0.5,0.2,1.2,0.2,1.9,0h-0.9H209.5z
		 M209.8,122.5h0.5H210H209.8z M213.7,215.7c-0.2-0.2-0.2,0-0.5-0.9h-3c0.7,0.9,1.2,1.2,1.9,1.6C212.6,216.1,213,215.9,213.7,215.7
		 M210.5,122.8v0.2V122.8z M214.2,145.5c0.5,0.2,0.9,0.7,1.6,1.2v-0.9C215.4,145.1,214.9,144.8,214.2,145.5 M216.6,144.6l0.2,0.2
		c0.2,0,0.2,0,0.2-0.2H216.6z M217.3,146.5c0.5,0,0.7,0,1.2,0.2c0.2-0.5,0.2-0.9,0.5-1.6C218,145.1,217.7,145.8,217.3,146.5
		 M238.8,187.3h1.4V187c-0.2,0-0.5-0.2-0.7-0.2v-1.6c-0.2-0.2-0.5-0.2-0.7-0.5c-0.9,0.9-1.6,1.6-2.6,2.6c0.2,0.2,0.5,0.5,0.7,0.7
		C237.7,187.7,238.1,187.5,238.8,187.3 M237.7,227.9c-0.5-0.9-0.5-0.9-1.4-0.9C236.5,227.4,236.7,228.1,237.7,227.9 M240.5,232.6
		c-0.7-1.2-0.7-2.3-2.1-3c-0.5,1.6-0.2,2.3,1.4,3.5C240,232.8,240.2,232.8,240.5,232.6 M242.1,137.8c0.5,0.2,0.9,0.2,1.2,0.2
		C242.8,137.1,242.8,137.1,242.1,137.8 M244.2,241c-0.2-0.7-0.5-1.2-1.4-0.5C243.3,240.8,243.8,240.8,244.2,241 M244.7,148.8
		c0.2,0.2,0.2,0.5,0.2,0.7h0.2v-0.7H244.7z M251.7,172.7c0.2,1.6-0.2,2.3-0.9,3.3C250.6,175.5,251,174.4,251.7,172.7 M251.7,138.2
		c-0.2-0.2-0.5-0.5-0.7-0.7l0.2-0.2c0.2,0,0.7,0.2,0.9,0.5C252,138,251.7,138,251.7,138.2 M253.6,161.5c-0.2,0-0.5,0-0.9-0.2
		c-0.2,0.7-0.2,0.9-0.2,1.6C253.4,162.6,253.6,162.4,253.6,161.5 M253.6,154.9c0.2,0.2,0.5,0.5,0.5,0.7h0.5c0-0.5-0.2-0.9-0.2-1.4
		C253.9,154.4,253.9,154.7,253.6,154.9"/>
	<path class="st1" d="M140.2,171.8c-2,0.9-3.7,1.5-5.9,1.3c-2.1-0.2-4.2-1-5.8-2.4c-0.3-0.3-0.6-0.6-0.7-0.9c-0.2-0.5-0.1-1,0-1.5
		c0.4-2,0.4-4.2-0.3-6.2c-0.7-1.9-2.3-3.6-4.4-4.1c-2.5-0.6-5.1,0.7-6.8,2.7c-1.7,2-2.5,4.4-3.3,6.9c-0.2,0.6-0.4,1.3-0.8,1.8
		c-0.6,0.8-1.5,1.2-2.4,1.4c-2.5,0.5-5-1-6.5-3.1c-1.5-2-2.1-4.6-2.7-7c-0.4-1.5-0.7-3-0.5-4.6c0.1-1.4,0.7-2.8,1.3-4.2
		c3-7.6,4.3-15.8,4-23.9c0-1.1-0.3-2.4-1.4-2.7c-1.1-0.3-2,0.9-2.5,1.9c-3.8,7.9-5.7,16.7-5.5,25.5c0,0.9,0.1,1.8-0.1,2.7
		c-0.2,0.9-0.6,1.8-1.1,2.6c-3.7,6.7-8.6,12.6-14.6,17.4c-0.6,0.5-1.3,1.1-1.3,1.8c0,1,1.1,1.6,2.1,1.5c1-0.1,1.8-0.8,2.5-1.4
		c5.3-4.6,10-10,13.5-16.1c0-0.1,0.1-0.1,0.1,0c0.7,2.4,1.4,4.7,2.5,6.9c1.2,2.2,2.9,4.2,5.2,5.3c2.8,1.4,6.4,1.1,9-0.8
		c0,0,0.1,0,0.1,0c1.4,1.7,3.6,2.7,5.8,2.6c2.2,0,4.4-1.1,5.8-2.8c-0.2,0.2,2.6,2.1,2.9,2.3c1.1,0.6,2.4,1.1,3.6,1.4
		c2.1,0.4,4.3,0.3,6.4-0.2c1.1-0.3,1.8-1.2,1.8-2.3L140.2,171.8z M101.4,137.6c0.3,2.4-0.1,4.9-1.4,7.3
		C100,142.2,100.4,139.6,101.4,137.6 M120.1,161.9c0.7-0.4,1.5-0.7,2.2-0.4c1,0.3,1.6,1.1,1.2,2.1c-0.7,1.9-2.6,3.3-4.7,3.3
		c-0.3,0-0.7-0.1-0.8-0.3c-0.1-0.1-0.1-0.3-0.1-0.5C117.9,164.4,118.6,162.8,120.1,161.9 M120.3,171.8c-1.7,0.3-3.1-0.5-3.7-1.6
		c2.3,0.7,4.9,0.2,6.8-1.1c0.1,0.2,0.1,0.3,0.2,0.5C122.9,170.6,121.8,171.5,120.3,171.8"/>
</g>
</svg>
