<?xml version="1.0" encoding="utf-8"?>
<!-- Generator: Adobe Illustrator 22.0.1, SVG Export Plug-In . SVG Version: 6.00 Build 0)  -->
<svg version="1.1" id="Layer_1" xmlns="http://www.w3.org/2000/svg" xmlns:xlink="http://www.w3.org/1999/xlink" x="0px" y="0px"
	 viewBox="0 0 729.9 222" style="enable-background:new 0 0 729.9 222;" xml:space="preserve">
<style type="text/css">
	.st0{clip-path:url(#SVGID_2_);fill:#3A66AF;}
	.st1{clip-path:url(#SVGID_2_);fill:#EA6362;}
	.st2{clip-path:url(#SVGID_2_);fill:#EE7362;}
	.st3{clip-path:url(#SVGID_2_);fill:#E0C862;}
</style>
<g>
	<defs>
		<rect id="SVGID_1_" x="-69" y="-80" width="841.9" height="330"/>
	</defs>
	<clipPath id="SVGID_2_">
		<use xlink:href="#SVGID_1_"  style="overflow:visible;"/>
	</clipPath>
	<path class="st0" d="M234.4,105.5c0.2,13-5.5,39.8-10.3,53c-34.6,93.9-176.3,69-189.1-31.3C28.7,78.5,67.8,25.5,109.9,11.9
		C169.9-7.6,233.5,42.1,234.4,105.5"/>
	<path class="st1" d="M724.8,146.2c-1.1-1.1-2.2-0.2-3.2,0.2c-10.6,4-21.2,7.9-31.8,12.1c-20.3,8.2-40.7,16.3-62.9,17.9
		c-9,0.6-17.5,0.1-25.1-5.5c-2-1.5-2.4-2.6-1.1-5c2.5-4.8,5.3-9.6,6.6-15c0.7-3,0.5-6-1.6-8.5c-1.8-2.1-4.7-1.8-6.9-1.1
		c-8.6,2.7-13.6,10.1-13.7,19.2c0,1.5,0.6,3.4-1.2,4.3c-3.5,1.9-7.1,3.3-11.2,1.7c-5.1-2.1-9-5.7-12.3-9.9c-1-1.3-1.7-3.1-0.7-4.9
		c2.7-4.8,4.2-10.1,6.2-15.1c5-12.6,5-26.9-0.9-39.1c-0.5-1.1-1.2-2.3-2.3-2.8c-0.8-0.4-1.7-0.4-2.5-0.4c-1.6,0.1-3.2,0.5-4.6,1.4
		c-2.1,1.4-3.5,3.7-4.3,6.1c-1,2.8-1.9,5.7-2.7,8.5c-1.5,5.4-2.4,11-3.5,16.5c-1.5,8-1.8,16,0.4,24c0.4,1.4,0,2.5-0.7,3.7
		c-2,3.3-4.8,5.8-8,7.7c-3.2,1.8-6.4,1.4-8.9-1.6c-2.2-2.6-4.5-4.7-2.1-9c4.9-8.7,8-18.2,7.7-28c-0.2-7.1-1.2-15.2-4.2-21.8
		c-1.5-3.3-4.6-6.3-8.1-6c-0.7,0.1-1.5,0.3-2.1,0.7c-0.6,0.4-1,1-1.4,1.5c-9.9,14.4-10,32.7-7.2,49.3c0.5,3.3,1.5,6.1-1.1,9.7
		c-3.9,5.4-7.2,11.3-12.4,15.7c-2.5,2.1-5.4,3.5-8.6,3.3c-2-0.1-4.2-1.3-4.9-3.2c-0.8-2.2,1-4.3,2-6.1c3.1-5.9,5.7-11.9,6.5-18.6
		c0.3-2.6,0.3-5-1.9-6.8c-1.6-1.2-3.6-1.7-5.6-2.1c-3.9-0.8-8.4-1-11.4,1.5c-1.5,1.3-2.5,3.1-3.4,4.9c-1.4,2.9-2.6,5.9-2.7,9.1
		c-0.1,2.2,0.4,4.3,1.1,6.3c0.6,1.7,1.6,3.4,1.6,5.3c-0.1,3.3-3.5,5.8-6.5,6.4c-5.6,1.2-10.3-3.5-11.4-9.7
		c-0.7-4.1-0.7-8.3-1.2-12.5c-0.4-2.7-1-5.8-4.1-6.5c-3.5-0.8-6.1,1-7.8,4.1c-1,1.9-2,3.9-3,5.7c-0.2,0.4-0.9,0.8-1.3,0.8
		c-0.7,0-0.7-0.7-0.8-1.3c-0.1-1,0.1-2.1-0.2-3c-0.9-2.7-1.8-5.8-5.2-6.1c-3.4-0.3-6.2,0.9-7.4,4.6c-1.2,3.8-3.2,7.4-3.7,11.5
		c-0.4,3.1-1.7,6.1-3.2,8.9c-2.4,4.4-7.6,7.1-11.8,5.8c-3.4-1-6.4-7.2-6.1-11.7c0.4-4.9,2.9-9.3,3-14.3c0.1-4.8-3.7-7.6-8-5.7
		c-1.3,0.6-2.2,2.2-3.4,3.2c-0.7,0.6-1.7,1.5-2.7,1c-1-0.4-0.4-1.5-0.4-2.3c-0.3-3.7-1.4-6.3-5.9-6.1c-4,0.1-5,2.7-5.1,5.6
		c-0.4,7.4-3.2,13.9-5.9,20.5c-1.7,4-4.6,6.6-7.8,9c-3.1,2.3-5.2,1.2-5.8-2.5c-0.3-1.9-0.1-3.7-0.1-5.6c0-4.2,1.8-8.2,0.8-12.4
		c-0.5-2.4-0.5-5.4-4.3-5.4c-3.6,0-5.9,1.2-6.6,5.2c-0.9,5.2-2.9,10.3-6.4,14.3c-2.2,2.5-5.1,5.3-9,3.5c-3.5-1.6-3.4-5.1-2.9-8.3
		c0.4-2.4,0.8-4.8,1.8-7.1c1.4-3.2,2.5-6.5,3.5-9.8c0.9-3,0.1-5.9-2.7-6.9c-2.8-1-6-0.9-7.4,3c-2,5.3-6.6,8.1-11.3,10.6
		c-2.4,1.2-4.4,0.7-5.9-1.7c-1.8-2.8-4.4-4.9-7-6.9c-2.9-2.1-5.5-3.3-9.3-0.6c-2.8,2-4.5,3.5-4.2,7c0.1,0.9-0.4,2.1-1,2.8
		c-6,7.4-7,15.8-3.7,24.4c4.4,11.2,12.1,14.6,21.7,5.6c3.8-3.6,5.5-8.1,6.6-12.9c0.8-3.1,2.2-4.9,5.1-6.3c2.2-1.1,3.1-1.2,3.1,1.5
		c0,3,1,5.7,2.5,8.1c4.5,7.1,11.3,13.6,20.9,4.7c2.5-2.3,5.1-2.8,6.9,1.1c0.5,1,1.2,2,1.9,2.9c3.1,4.2,7.2,5.8,11.6,4.7
		c6.7-1.8,11.6-5.9,15.2-11.8c2.2-3.6,3.5-7.5,5-11.4c0.9-2.2,2.5-2.6,4.4-2.6c2.4,0.1,1.6,2.1,1.7,3.3c0.2,4.6,2.3,8.4,4.5,12.4
		c2.8,5,7.3,9.1,12.9,10.5c6.7,1.7,15.3-0.7,18.3-7.5c1.2-2.7,1.2-5.7,1.9-8.5c0.1-0.5,0.4-1,0.9-1c0.3,0,0.6,0.3,0.7,0.5
		c0.1,0.3,0.1,0.6,0.1,0.9c-0.1,1.3-0.1,2.6-0.1,3.9c0,1,0,2,0.3,3c0.3,0.9,0.8,1.7,1.4,2.4c1.1,1.3,2.6,2.4,4.2,2.3
		c1-0.1,1.9-0.6,2.7-1.2c3.2-2.6,4.4-6.8,6.1-10.3c0.5-1,0.1-2.5,1.8-2.6c1.3,0,2,1.1,2.6,2c0.5,0.8,1,1.7,1.5,2.6
		c5.4,9.5,14.1,13.8,25.2,9.4c3.4-1.3,5.2-0.6,7.5,1.3c5.7,4.6,14.1,4.9,20.6,1.6c7-3.5,11.8-9,16.2-15.1c2.7-3.8,3.1-3.6,6.3-0.4
		c3.9,4,8.2,6.7,14.6,5.5c5.8-1.1,10-4.1,13.9-8c1.8-1.8,3.2-1.9,4.9,0.1c2.5,3,5.5,5.6,8.8,7.6c6.2,3.8,12.9,7.3,20.2,3.4
		c5-2.6,8.4-0.7,11.8,2.5c4.3,4.1,9.8,6.2,15.5,6.9c21.4,2.5,41.8-2.3,61.4-10.5c15.9-6.6,30.5-15.7,46.6-22
		c2.9-1.2,6.2-3.1,6.9-7.1C724.8,148.2,725.9,147.3,724.8,146.2 M296.6,169.9c-0.5,1.2-1.4,2.3-2.3,3.3c-0.8,0.9-1.6,1.7-2.6,2.3
		c-0.4,0.3-0.9,0.5-1.3,0.5c-1.1,0.1-2-0.7-2.7-1.5c-0.9-1.1-1.5-2.5-1.8-3.9c-0.4-2-0.2-4.2,0.7-6c1-2.1,2.9-1.6,4.9-1.5
		c1.5,0.1,2.8,0.7,4.1,1.3c0.3,0.1,0.5,0.3,0.7,0.5c0.3,0.3,0.5,0.6,0.6,1C297.3,167.2,297.2,168.6,296.6,169.9 M482.5,146.9
		c-0.3,2.9-0.8,5.8-1.6,8.6c-0.4,1.5-2.1,3.9-3.9,2.6c-0.8-0.6-1.6-1.5-1.9-2.5c-0.3-1.1,0-2.2,0.1-3.3c0.1-0.6,0.2-1.2,0.4-1.7
		c0.5-1.5,1.2-3.3,2.5-4.5c0.7-0.6,1.6-1,2.5-1.1c0.2,0,0.4,0,0.6,0.1c0.5,0.1,1,0.4,1.2,0.9C482.5,146.3,482.5,146.6,482.5,146.9
		 M521,140.2c-0.7,2.1-2.5,1.8-2.9-0.4c-1.3-7.3-1.9-14.7,2.1-22.7c0.7-1.3,2-1.2,2.5,0.2C525.9,125.8,523.3,133.1,521,140.2
		 M554.6,141c-0.7,1.7-2.3,0.9-2.3-1.2c0.1-7.9,1.8-15.5,4.9-22.7c0.7-1.6,2.2-1,2.3,0.9C560.1,126.2,557.5,133.6,554.6,141
		 M593.6,160.6c-0.7-0.7-1.3-1.8-1.3-2.7c-0.1-0.7,0.1-1.4,0.3-2.1c0.5-1.4,1.1-2.8,1.9-4c0.6-0.9,1.3-1.8,2.2-2.3
		c0.8-0.5,1.7-0.7,2.6-0.6c0.2,0,0.4,0.1,0.6,0.2c0.5,0.2,0.9,0.5,1,1c0.1,0.3,0,0.6-0.1,0.9c-0.8,2.7-1.8,5.3-3,7.9
		C597.1,160.1,595.1,162.1,593.6,160.6"/>
	<path class="st1" d="M273.4,172c-2-0.9-2.5,1.1-3.6,2.2c-3.2,3.1-7,5.7-11.5,4.3c-4-1.2-5.3-5-5.7-8.9c-0.2-1.6-0.5-3.1-0.7-4.6
		c-0.6-4,1.3-5.5,4.8-6.7c4.4-1.6,9.5-2.6,11-8.4c0.8-3.2,0-4.7-3.3-4c-2.6,0.5-5.1,0.6-7.7,0.9c-2.7,0.3-3.4-0.6-2.9-3.4
		c2.2-13.2,6.1-25.9,10.4-38.6c1-3-0.2-7.7-2.5-8.3c-2.7-0.8-6.4,1.7-7.4,4.6c-2.7,7.8-4.9,15.7-7,23.7c-2.9,11.6-5.3,23.2-5.6,36.3
		c0.1,2.2,0.2,5.6,0.6,8.9c0.3,2.1,0.7,4.3,1.6,6.3c2.3,4.9,3.8,10.7,9.5,12.7c9.5,3.3,18.9-2.7,20.6-12.8
		C274.3,174.6,275.5,172.9,273.4,172"/>
	<path class="st1" d="M238.3,164.9c-1.2-0.6-2.5-0.3-3.6,0.7c-1.7,1.5-3.4,3.2-5.3,4.4c-2.9,1.7-5.8,3.9-9.5,2.9
		c-7.3-1.9-9.8-6.1-8.5-14.8c0.5-3.7,1.1-7.4,1.5-11.1c0.3-2.7-0.9-4.8-3.5-5c-2.6-0.2-5.2,0.5-6.4,3.4c-0.9,2.4-1.6,4.9-2.7,7.2
		c-4.3,9.3-10.8,16.3-21.2,18.6c-2.6,0.6-5.4,0.5-8.2,0.6c-1.9,0.1-2.9,1.4-3.4,2.9c-0.4,1.3,0.6,2.5,1.8,3.1
		c3.7,2.2,7.4,4,12.1,2.8c6.1-1.6,11.5-4.3,16.1-8.6c2.2-2.1,3.7-2.7,5.8,0.7c4.2,6.9,10.3,11,19,11.1c1.9,0.1,3.9-0.2,5.9-1.4
		c5.6-3.4,9-8.1,10.4-14.4C238.8,166.8,239.7,165.6,238.3,164.9"/>
	<path class="st2" d="M213.1,125c3.4-0.2,4.5-2.6,5.1-5.2c0.1-4.4-2.1-7.9-4.7-8c-3.2-0.1-6.2,2.8-6.3,5.8
		C207.1,121,210.4,125.2,213.1,125"/>
	<path class="st3" d="M187.9,180c-0.5,0.7-0.9,1.4-1.4,2.1c-1.6,0.7-3.3,1.6-5.6,2.8c-1.6,1.2-1.6,1.2-9.6,4
		c-1.2-0.2-2.1-0.5-3.3-0.5c-0.9-0.9-2.1-1.9-3.3-2.8c-0.9-2.3-1.6-4.9-2.6-7.5c-0.5-1.9-1.4-3.5-2.1-5.4c0-0.5-0.2-0.9-0.5-1.4
		c-0.2-0.9-0.7-2.1-0.9-3c-0.7-1.9-1.4-3.5-2.1-5.4c-1.2-3.5-2.8-7-4.7-10.3c-2.6-4.9-4.7-9.9-6.6-15c0-0.2-0.2-0.7-0.2-0.9
		c-0.9,0.5-1.9,0.7-2.8,0.9c-0.7-0.2-1.4-0.2-2.3-0.5c-0.2-0.2-0.7-0.7-1.2-1.2c-0.7,0.2-1.4,0.5-2.1,0.7c-0.2,0.7-0.5,1.4-0.7,2.1
		c-0.7-0.2-1.4-0.5-2.1-0.7c-0.7,0.2-1.4,0.7-1.4,1.9c-0.9,0-1.9,0.2-3,0.2c-0.2-0.7-0.5-1.2-0.7-1.6c-0.7-0.2-1.4-0.5-2.3-0.5
		c-0.2,0.9-0.2,0.9,0.2,1.9c0.7,0.2,1.2,0.2,2.3,0.5c-1.2,0.7-2.1,0.9-3,1.4c-0.2,1.4-0.2,2.8-0.5,4.5c0,0.5,0.2,0.9,0.5,1.4v0.7
		c-1.6,2.8-1.9,6.1-1.2,9.4c0.5,2.6,0.2,4.9,0.7,7.5c0.5,2.8,0.5,5.9,0.5,8.7c0,1.6,0.2,3.3,0.2,4.7v3.5c0,0.9-0.2,1.6,0,2.3
		c0.2,1.6,0.2,3-0.2,4.5c-0.2,0.7-0.2,1.4-0.5,2.1c-1.2,0.9-2.6,1.2-4,0.9h-1.6c-2.6,0.5-5.2,0.5-7.7,0.5h-0.5
		c-1.9-0.7-3.8-0.5-5.4-0.7c-0.9,0-1.6-0.5-2.3-0.7c-0.7,0.2-1.4,0.2-2.1,0.5c-0.2,0-0.5,0.2-0.5,0c-1.4-0.2-2.8-0.7-4.5-0.9
		c-0.2-2.1-0.5-4-0.9-5.9c-0.2-1.2-0.5-2.6-0.9-4c-0.2-1.4-0.2-2.8,0-4.5c0.2-1.9,0.2-3.8,0.5-5.6c0-1.4,0.2-2.8,0.2-4.2
		c0.2-1.2,0.2-2.1,0.2-3.3c0.2-0.7,0.2-1.2,0.5-1.9h1.4v-0.9c-0.2-0.7-0.2-1.2-0.9-1.4c0-1.2,0-2.1,0.2-3.3c0,0.2,0,0.2-0.2,0.2
		c0-1.9-0.2-3.8-0.2-5.6v-5.9c0.2-0.2,0.7-0.7,0.9-0.9c0.2-0.2,0.2-0.2,0.5-0.5c0-0.5,0.2-0.9,0.2-1.4c0,0,0-0.2-0.2-0.2
		c0.2-0.2,0.2-0.2,0.2-0.5c0.2-2.1,0.2-4.2,0.2-6.3c-0.5-2.6-0.5-5.2-0.5-7.7l-0.2,0.2c-0.7-0.5-0.7-0.7,0-1.2c0,0,0.2,0.2,0.2,0.5
		v-0.9c0-0.7,0.2-1.4,0.2-2.1c-0.5,0-0.9,0.2-1.4,0.5c-0.2-0.7-0.2-1.2-0.5-1.9c0.2-0.5,0.5-1.2,0.7-1.6c-0.2-0.2,0-0.5-0.9-0.7
		v-6.8c0.9-0.2,1.2-0.5,1.6-0.7h0.2h-0.2h1.2c0-0.7-0.2-1.4-0.2-2.1v-0.2c-0.7,0-1.4,0.5-2.1-0.2c0.2-2.3-0.5-4.9,0.2-7.5
		c-0.5-0.9-1.2-2.1-0.5-3.5c0-0.5-0.5-1.2-0.5-1.6c0-0.5,0.2-1.2,0.5-1.6c-0.2-0.2-0.5-0.5-0.7-0.7v-7c-0.2-1.6-0.5-3-0.5-4.7
		c0.2-2.6-0.9-5.2-0.9-7.7v-3c0-0.9,0-1.6-0.2-2.6c-0.2-0.7-0.2-1.9,0-2.8c0-0.9,0-1.9-0.2-2.8c-0.2-1.6-0.2-3.3-0.2-4.9
		c-0.2-1.9-0.5-3.8-0.7-5.6v-1.2c0.9-0.7,2.1-1.4,3.3-2.1c0.5-0.9,0.9-2.1,1.6-3.5c1.6-0.7,3.3-1.9,5.4-2.6c1.9-0.5,3.8-0.9,5.6-1.6
		c0,0,0-0.2,0.2-0.5c0.7,0.2,1.4,0.2,2.1,0.5c3.5-0.7,7-1.9,11-1.2c0.9-0.7,2.3-0.7,3.8-0.7c3.5,0.5,7,0.2,10.6,0.5
		c0.9,0,1.9-0.2,2.8,0.5h0.5c1.6,0.2,3.3-0.2,4.7,0.9c1.9-0.2,3.5,0.5,5.2,0.9c0.7,0,1.6,0.2,2.3,0.5c0.2,0,0.2,0,0.5,0.2
		c0.7,0,1.4,0.2,2.3,0.5c0.5,0.2,0.9,0.2,1.4,0.2c0.5,0.2,0.7,0.2,0.9,0.2c1.4,0,2.8,0.2,4.2,0.9c1.2,0.5,2.3,0.5,3.5,0.7
		c0.5,0.2,0.9,0.2,1.2,0.5c0.2-0.2,0.5-0.7,0.5-0.9c0.9-0.2,1.6-0.7,2.6-1.2c0.7,0.2,1.2,0.5,1.9,0.7c-0.5,0.5-0.7,0.7-1.2,0.9
		c0.7,0.9,1.4,1.4,2.3,2.1c0.9,0.5,1.9,0,2.6-0.5c0.2,1.2,1.9,1.4,1.6,3c0.7,0.2,1.4,0.5,2.1,0.9c0,0.2,0,0.2-0.2,0.7
		c0.5,0.5,0.9,1.4,1.4,2.1c0,0.2,0.5,0.5,0.7,0.7c0,0.5,0,0.9-0.2,1.6c0.2,0.2,0.7,0.5,0.9,0.7c0.2,1.4,0.5,2.8,0.9,4.5
		c0.2,0.2,0.9,0.5,1.4,0.7c1.2,1.6,1.4,3.8,1.9,5.6c0.2,0.2,0.7,0.2,0.9,0.5c-0.2,0.7-0.5,1.4-0.7,2.3c0.7,0,1.2,0.2,1.6,0.5
		c-0.2,1.2,0.5,2.1,0.7,3.3c-0.2,0.5-0.5,0.9-0.7,1.4c0,0.5,0.2,1.2,0.2,1.6c-0.2,0.9-1.6,1.4-1.4,2.6c0.5,0,0.7-0.2,1.2-0.2v0.2
		c0,1.6-0.9,2.8-1.9,4c0,0-0.2,0.2-0.2,0.5c0,0.5,0,0.7,0.2,1.2c-0.5,0.2-0.7,0.2-1.2,0.5c0.2,0.7,0.2,1.4,0.5,2.3
		c-0.5,0-0.7-0.2-1.2-0.2c-1.6,1.6-2.6,3.8-3.5,5.4V96c-0.7,0.5-1.2,0.7-1.4,1.2c-0.7,1.9-1.4,3.5-2.1,5.4c-0.5,0.2-0.9,0.5-1.4,0.7
		c0,0,0-0.2-0.2-0.2c0,0.5-0.2,0.9-0.5,1.2c0.2,0,0.5,0.2,0.5,0.2c-0.5,0.7-1.2,1.4-1.6,1.9c-0.2,0.2-0.5,0.5-0.5,0.9h-0.2
		c0,0-0.2,0-0.2,0.2c-0.2,0.5-0.7,0.7-0.9,1.2c-0.7,1.4-1.4,2.8-2.1,4.2c0,0,0,0.5,0.2,0.9c-1.2,0.7-2.1,1.6-3.3,2.3
		c-0.5,0.2-0.7,0.5-0.9,0.7v0.7c-0.5,0.9,0,1.6,0.2,2.6c0.5,0.7,0.7,1.2,1.2,1.6c0.9,1.6,0.7,4,1.6,5.9c0.9,1.6,1.4,3.8,2.3,5.6
		c0.7,1.6,1.9,3.5,2.8,4.9c0.5,1.4,0.9,2.3,1.6,3.5c0,0.2,0.2,0.5,0.2,0.7c1.6,4.5,3.5,8.7,5.2,13.1c0.7,1.9,1.6,3.8,2.1,5.9
		c1.4,2.3,1.6,5.4,3,7.7c0.2,0.7,0.5,1.6,0.7,2.6c0.5,2.1,1.2,4,1.6,6.1C187.7,178.6,187.7,179.3,187.9,180 M97.4,71.4
		c0-0.7,0-1.2-0.2-1.9c-0.9,0.2-0.9,0.7-0.7,1.6C96.7,71.2,96.9,71.2,97.4,71.4 M98.3,110.8c-0.2,0.5-0.5,1.2-0.5,1.2h-1.2
		c-0.2,0-0.2-0.7-0.2-0.9C96.9,110.6,97.4,110.1,98.3,110.8 M96.7,141.3c0.7,0.5,0.5,1.2,0.7,1.9C96.4,142.9,96.4,142.2,96.7,141.3
		 M97.4,137.5c-0.2,0-0.5-0.2-0.7-0.2c0.2-0.9,0.5-1.2,1.4-0.9C98.1,136.8,97.8,137.3,97.4,137.5 M98.1,95.1v-0.2
		c0.2-0.7,0.2-1.6,0.2-2.3c-0.2-0.2-0.2-0.2-0.5-0.2c-0.2,0.2-0.5,0.7-0.7,1.2C97.4,93.9,97.8,94.4,98.1,95.1 M97.4,143.4v-0.2
		V143.4z M97.6,90.4c0,0,0.2,0.2,0.2,0.5c0.2,0,0.2,0,0.2-0.2v-0.5C97.8,90.2,97.6,90.2,97.6,90.4 M98.5,107.3v-3
		c-0.2,0-0.5,0-0.9,0.5c0.2,0.2,0.5,0.7,0.5,0.9c0,0.5-0.2,0.7-0.2,1.2C98.1,107,98.3,107,98.5,107.3 M98.1,122.3
		c0-0.9,0-1.9,0.2-2.8C97.8,120.4,97.8,120.9,98.1,122.3 M98.3,117.8c0.2-0.2,0.2-0.5,0.2-0.9C98.3,117.4,98.3,117.6,98.3,117.8
		 M122.5,187.3c-0.5,0.9,0.2,1.6,1.2,1.9c0.2,0.2,0.5,0,0.9,0C124.1,188,123.4,187.5,122.5,187.3 M128.6,109.2
		c0.2-0.2,0.5-0.2,0.7-0.5c2.6-1.6,5.4-2.3,8.4-3c0.2,0,0.7-0.2,0.9-0.2c0.5-0.5,1.2-0.9,1.6-1.4c1.6-1.6,3.3-3,4.9-4.7
		c1.2-0.9,2.3-2.1,3-3.3c0.9-1.2,1.6-2.8,2.6-4.2c0.5-0.9,1.2-2.1,1.9-3c0.9-1.2,2.3-3.1,2.6-4.5c0.5-1.9,0.5-3.8,0.2-5.6
		c0.2-0.7,0.5-1.4,0.7-1.9c-0.2-0.7-0.5-1.4-0.5-1.9c-0.5-0.2-0.7-0.5-1.2-0.7c0.5-0.5,0.9-0.5,1.2-0.7c-0.5-1.4-1.2-2.6-2.3-3.3
		c-0.9-0.2-1.9-0.5-2.8-0.7c-1.6-1.6-3.5-2.6-5.9-2.3c-0.7,0-1.4-0.2-2.1-0.5c-2.8-0.5-5.6-0.5-8.4-0.2c-2.1,0-4.2,0.5-6.1,0.7
		c-1.4,0.2-2.6,0.7-3.8,1.6c-0.2,1.6,0,3.3,0.2,4.9c0.2,1.9,0.9,3.8,0.2,5.6v0.5c0.2,2.8,0.5,5.6,0.5,8.7c0.2,0.9,0.2,2.1,0.2,3.3
		v9.9c0,1.4,0,2.8,0.5,4.2c0.2,0.9,0.7,1.9,0.9,2.6C127.4,108.9,127.9,109.2,128.6,109.2 M128.6,135.9l-0.5-0.5
		c-0.5,0-0.9,0.2-1.6,0.2c0.2,0.5,0.5,0.7,0.7,0.9C127.6,136.4,128.1,136.1,128.6,135.9 M133,135c-0.7-0.2-1.2-0.2-1.6-0.5l-0.2,0.2
		h-0.5c-0.2,0.2-0.5,0.5-0.9,0.7c0,0.2,0.2,0.2,0.2,0.2h2.8C132.8,135.7,132.8,135.4,133,135 M140.8,132.8c0.2-0.7,0.2-1.2,0.5-1.6
		c0.2-0.2,0.5-0.2,0.7-0.2c-0.2-0.2-0.5-0.7-0.7-1.2c-0.5,0.9-0.7,1.4-0.9,1.9c-0.9,0.7-1.6,1.2-2.6,1.9c-0.2,0-0.7-0.2-0.9-0.2
		c-0.5-0.5-0.7-0.7-0.9-1.2c-0.5,0.2-0.9,0.7-1.4,0.9c0.2,0.2,0.5,0.7,0.7,1.2c0.7,0,1.2,0.2,1.9,0.5
		C138.4,134,139.6,133.3,140.8,132.8 M138.6,127.9c-1.2,0.5-2.1,0.9-3.3,1.6h0.7c0.2,0,0.2,0.5,0.2,0.9c0.2,0,0.5-0.2,0.9-0.5
		c0.2-0.2,0.5-0.5,0.9-0.9v0.2c0.2-0.2,0.2-0.2,0.2-0.5c0.7-0.2,1.2-0.5,1.6-0.7l-0.2-0.2C139.6,127.7,139.1,127.9,138.6,127.9
		 M137.7,127c0.5-0.2,0.9-0.5,1.4-0.9c-0.9,0-1.9,0-2.8,0.5v0.9C136.8,127.2,137.2,127.2,137.7,127 M137,137.8h0.5
		c0,0.2-0.2,0.5-0.2,0.7h-0.5C137,138.2,137,138,137,137.8 M140.8,129.1c-0.5,0.2-0.7,0.5-1.2,0.7c0.5,0,0.9,0,1.6-0.2
		C141,129.6,140.8,129.3,140.8,129.1 M140.5,63.6c0.5,0.2,1.2,0.2,1.9,0h-0.9H140.5z M140.8,42.5h0.5H141H140.8z M144.7,135.7
		c-0.2-0.2-0.2,0-0.5-0.9h-3c0.7,0.9,1.2,1.2,1.9,1.6C143.6,136.1,144,135.9,144.7,135.7 M141.5,42.8V43V42.8z M145.2,65.5
		c0.5,0.2,0.9,0.7,1.6,1.2v-0.9C146.4,65.1,145.9,64.8,145.2,65.5 M147.6,64.6l0.2,0.2c0.2,0,0.2,0,0.2-0.2H147.6z M148.3,66.5
		c0.5,0,0.7,0,1.2,0.2c0.2-0.5,0.2-0.9,0.5-1.6C149,65.1,148.7,65.8,148.3,66.5 M169.8,107.3h1.4V107c-0.2,0-0.5-0.2-0.7-0.2v-1.6
		c-0.2-0.2-0.5-0.2-0.7-0.5c-0.9,0.9-1.6,1.6-2.6,2.6c0.2,0.2,0.5,0.5,0.7,0.7C168.7,107.7,169.1,107.5,169.8,107.3 M168.7,147.9
		c-0.5-0.9-0.5-0.9-1.4-0.9C167.5,147.4,167.7,148.1,168.7,147.9 M171.5,152.6c-0.7-1.2-0.7-2.3-2.1-3c-0.5,1.6-0.2,2.3,1.4,3.5
		C171,152.8,171.2,152.8,171.5,152.6 M173.1,57.8c0.5,0.2,0.9,0.2,1.2,0.2C173.8,57.1,173.8,57.1,173.1,57.8 M175.2,161
		c-0.2-0.7-0.5-1.2-1.4-0.5C174.3,160.8,174.8,160.8,175.2,161 M175.7,68.8c0.2,0.2,0.2,0.5,0.2,0.7h0.2v-0.7H175.7z M182.7,92.7
		c0.2,1.6-0.2,2.3-0.9,3.3C181.6,95.5,182,94.4,182.7,92.7 M182.7,58.2c-0.2-0.2-0.5-0.5-0.7-0.7l0.2-0.2c0.2,0,0.7,0.2,0.9,0.5
		C183,58,182.7,58,182.7,58.2 M184.6,81.5c-0.2,0-0.5,0-0.9-0.2c-0.2,0.7-0.2,0.9-0.2,1.6C184.4,82.6,184.6,82.4,184.6,81.5
		 M184.6,74.9c0.2,0.2,0.5,0.5,0.5,0.7h0.5c0-0.5-0.2-0.9-0.2-1.4C184.9,74.4,184.9,74.7,184.6,74.9"/>
	<path class="st1" d="M71.2,91.8c-2,0.9-3.7,1.5-5.9,1.3c-2.1-0.2-4.2-1-5.8-2.4c-0.3-0.3-0.6-0.6-0.7-0.9c-0.2-0.5-0.1-1,0-1.5
		c0.4-2,0.4-4.2-0.3-6.2c-0.7-1.9-2.3-3.6-4.4-4.1c-2.5-0.6-5.1,0.7-6.8,2.7c-1.7,2-2.5,4.4-3.3,6.9c-0.2,0.6-0.4,1.3-0.8,1.8
		c-0.6,0.8-1.5,1.2-2.4,1.4c-2.5,0.5-5-1-6.5-3.1c-1.5-2-2.1-4.6-2.7-7c-0.4-1.5-0.7-3-0.5-4.6c0.1-1.4,0.7-2.8,1.3-4.2
		c3-7.6,4.3-15.8,4-23.9c0-1.1-0.3-2.4-1.4-2.7c-1.1-0.3-2,0.9-2.5,1.9C28.7,55.2,26.8,64,27,72.8c0,0.9,0.1,1.8-0.1,2.7
		c-0.2,0.9-0.6,1.8-1.1,2.6c-3.7,6.7-8.6,12.6-14.6,17.4c-0.6,0.5-1.3,1.1-1.3,1.8c0,1,1.1,1.6,2.1,1.5c1-0.1,1.8-0.8,2.5-1.4
		c5.3-4.6,10-10,13.5-16.1c0-0.1,0.1-0.1,0.1,0c0.7,2.4,1.4,4.7,2.5,6.9c1.2,2.2,2.9,4.2,5.2,5.3c2.8,1.4,6.4,1.1,9-0.8
		c0,0,0.1,0,0.1,0c1.4,1.7,3.6,2.7,5.8,2.6c2.2,0,4.4-1.1,5.8-2.8c-0.2,0.2,2.6,2.1,2.9,2.3c1.1,0.6,2.4,1.1,3.6,1.4
		c2.1,0.4,4.3,0.3,6.4-0.2c1.1-0.3,1.8-1.2,1.8-2.3L71.2,91.8z M32.4,57.6c0.3,2.4-0.1,4.9-1.4,7.3C31,62.2,31.4,59.6,32.4,57.6
		 M51.1,81.9c0.7-0.4,1.5-0.7,2.2-0.4c1,0.3,1.6,1.1,1.2,2.1c-0.7,1.9-2.6,3.3-4.7,3.3c-0.3,0-0.7-0.1-0.8-0.3
		c-0.1-0.1-0.1-0.3-0.1-0.5C48.9,84.4,49.6,82.8,51.1,81.9 M51.3,91.8c-1.7,0.3-3.1-0.5-3.7-1.6c2.3,0.7,4.9,0.2,6.8-1.1
		c0.1,0.2,0.1,0.3,0.2,0.5C53.9,90.6,52.8,91.5,51.3,91.8"/>
</g>
</svg>
